<svg width="956" height="437" viewBox="0 0 956 437" fill="none" xmlns="http://www.w3.org/2000/svg">
<g filter="url(#filter0_i_116_540)">
<path d="M529.849 48L476.228 110.221L531.416 175.83H560.41L507.124 110.221L560.41 48H529.849Z" fill="#6393F2"/>
<path d="M376 48H518.211L463.538 111.761L518.878 175.83H485.038L430.058 111.761L465.074 72.3338H395.658L376 48Z" fill="#6393F2"/>
</g>
<g filter="url(#filter1_i_116_540)">
<path d="M61.75 318V234.25H93.875C97.4583 234.25 100.958 234.75 104.375 235.75C107.875 236.75 111 238.292 113.75 240.375C116.583 242.375 118.833 244.958 120.5 248.125C122.167 251.292 123 255.042 123 259.375C123 264.542 121.5 268.917 118.5 272.5C115.583 276.083 111.833 278.792 107.25 280.625C102.75 282.375 98.0833 283.25 93.25 283.25C91.9167 283.25 90.25 283.167 88.25 283C86.3333 282.833 84.3333 282.667 82.25 282.5C80.1667 282.25 78.2083 282 76.375 281.75C74.5417 281.417 73.125 281.125 72.125 280.875V271.5C74.9583 272.333 78.0833 273 81.5 273.5C84.9167 273.917 88.2917 274.125 91.625 274.125C97.9583 274.125 102.833 272.792 106.25 270.125C109.75 267.458 111.5 263.875 111.5 259.375C111.5 254.708 109.583 251.125 105.75 248.625C102 246.125 97.4167 244.875 92 244.875H73V318H61.75ZM109 318L70.875 280.875L79.875 276.25L126.25 318H109ZM163.875 319.875C159.125 319.875 154.75 319.042 150.75 317.375C146.833 315.625 143.375 313.25 140.375 310.25C137.458 307.167 135.208 303.667 133.625 299.75C132.042 295.75 131.25 291.542 131.25 287.125C131.25 281.208 132.542 275.75 135.125 270.75C137.708 265.75 141.25 261.75 145.75 258.75C150.333 255.75 155.542 254.25 161.375 254.25C167.792 254.25 173.125 255.583 177.375 258.25C181.625 260.917 184.792 264.542 186.875 269.125C189.042 273.708 190.125 278.875 190.125 284.625V290.75H140.875V282H180C179.583 277.917 178.417 274.583 176.5 272C174.667 269.417 172.417 267.5 169.75 266.25C167.083 264.917 164.292 264.25 161.375 264.25C157.375 264.25 153.917 265.333 151 267.5C148.083 269.583 145.833 272.375 144.25 275.875C142.667 279.292 141.875 283.042 141.875 287.125C141.875 291.125 142.75 294.875 144.5 298.375C146.333 301.792 148.917 304.583 152.25 306.75C155.583 308.833 159.458 309.875 163.875 309.875C168.375 309.875 172.542 308.75 176.375 306.5C180.292 304.167 183.583 301.625 186.25 298.875V310C185.083 311.417 183.333 312.917 181 314.5C178.75 316 176.125 317.25 173.125 318.25C170.208 319.333 167.125 319.875 163.875 319.875ZM250.5 318L250.375 280.875C250.375 275.458 249.167 271.333 246.75 268.5C244.417 265.667 240.792 264.25 235.875 264.25C232.542 264.25 229.208 265.5 225.875 268C222.625 270.417 219.75 273.25 217.25 276.5V265.375C218.583 263.708 220.292 262.042 222.375 260.375C224.458 258.625 226.792 257.167 229.375 256C232.042 254.833 234.792 254.25 237.625 254.25C241.875 254.25 245.75 255.208 249.25 257.125C252.75 258.958 255.542 261.792 257.625 265.625C259.708 269.375 260.75 274.125 260.75 279.875V318H250.5ZM207 318V255.5H217.25V318H207ZM304.875 319.875C299.542 319.875 294.667 318.542 290.25 315.875C285.833 313.125 282.292 309.333 279.625 304.5C277.042 299.667 275.75 294.083 275.75 287.75C275.75 280.833 277.042 274.875 279.625 269.875C282.292 264.875 285.917 261.042 290.5 258.375C295.083 255.625 300.208 254.25 305.875 254.25C309.458 254.25 313.083 255.125 316.75 256.875C320.5 258.542 323.708 260.875 326.375 263.875V255.5H336.625V318H326.375V307.375C324.208 310.708 321.25 313.625 317.5 316.125C313.833 318.625 309.625 319.875 304.875 319.875ZM306.5 309.875C310.333 309.875 313.75 308.875 316.75 306.875C319.75 304.875 322.125 302.125 323.875 298.625C325.625 295.042 326.458 291.042 326.375 286.625L326.25 274.625C323.667 271.375 320.875 268.833 317.875 267C314.958 265.167 311.583 264.25 307.75 264.25C303.25 264.25 299.417 265.375 296.25 267.625C293.083 269.875 290.625 272.792 288.875 276.375C287.208 279.875 286.375 283.667 286.375 287.75C286.375 291.75 287.208 295.458 288.875 298.875C290.542 302.208 292.875 304.875 295.875 306.875C298.958 308.875 302.5 309.875 306.5 309.875ZM401.375 318L401.25 280.875C401.25 275.458 400.042 271.333 397.625 268.5C395.292 265.667 391.667 264.25 386.75 264.25C383.417 264.25 380.083 265.5 376.75 268C373.5 270.417 370.625 273.25 368.125 276.5V265.375C369.458 263.708 371.167 262.042 373.25 260.375C375.333 258.625 377.667 257.167 380.25 256C382.917 254.833 385.667 254.25 388.5 254.25C392.75 254.25 396.625 255.208 400.125 257.125C403.625 258.958 406.417 261.792 408.5 265.625C410.583 269.375 411.625 274.125 411.625 279.875V318H401.375ZM357.875 318V255.5H368.125V318H357.875ZM470.25 319.875C464.25 319.875 458.583 318.833 453.25 316.75C448 314.583 443.292 311.583 439.125 307.75C435.042 303.833 431.833 299.208 429.5 293.875C427.167 288.458 426 282.542 426 276.125C426 269.625 427.167 263.708 429.5 258.375C431.833 253.042 435.042 248.458 439.125 244.625C443.292 240.708 448 237.708 453.25 235.625C458.583 233.458 464.25 232.375 470.25 232.375C475.5 232.375 480.042 233.125 483.875 234.625C487.708 236.042 491.042 238 493.875 240.5V258C491.875 256.417 489.792 254.958 487.625 253.625C485.458 252.208 483.042 251.042 480.375 250.125C477.708 249.208 474.5 248.75 470.75 248.75C465.75 248.75 461.208 249.958 457.125 252.375C453.042 254.708 449.792 257.958 447.375 262.125C444.958 266.208 443.75 270.875 443.75 276.125C443.75 281.292 444.958 285.958 447.375 290.125C449.792 294.208 453.042 297.458 457.125 299.875C461.208 302.208 465.75 303.375 470.75 303.375C476.333 303.375 481 302.5 484.75 300.75C488.583 299 492.042 296.917 495.125 294.5V311.375C492.292 313.875 488.75 315.917 484.5 317.5C480.25 319.083 475.5 319.875 470.25 319.875ZM534.375 319.875C529.375 319.875 524.708 318.583 520.375 316C516.125 313.417 512.667 309.667 510 304.75C507.417 299.833 506.125 293.875 506.125 286.875C506.125 279.792 507.417 273.75 510 268.75C512.667 263.75 516.208 259.917 520.625 257.25C525.125 254.583 530.083 253.25 535.5 253.25C539 253.25 542.458 254.042 545.875 255.625C549.375 257.208 552.292 259.333 554.625 262V254.875H570.5V318H554.625V307.375C552.792 310.792 550.125 313.75 546.625 316.25C543.125 318.667 539.042 319.875 534.375 319.875ZM538.375 304C541.208 304 543.833 303.25 546.25 301.75C548.75 300.25 550.792 298.125 552.375 295.375C553.958 292.625 554.708 289.375 554.625 285.625V276.625C552.375 274.208 549.917 272.292 547.25 270.875C544.667 269.458 541.833 268.75 538.75 268.75C535.417 268.75 532.542 269.625 530.125 271.375C527.792 273.042 525.958 275.25 524.625 278C523.292 280.75 522.625 283.708 522.625 286.875C522.625 289.958 523.292 292.833 524.625 295.5C525.958 298.083 527.792 300.167 530.125 301.75C532.542 303.25 535.292 304 538.375 304ZM590 318V254.875H605.875V318H590ZM605.875 282.75V266.75C608.042 263 610.583 259.875 613.5 257.375C616.5 254.875 619.875 253.625 623.625 253.625C625.958 253.625 628 254 629.75 254.75V272.625C628.5 271.875 627.167 271.333 625.75 271C624.417 270.583 622.958 270.375 621.375 270.375C617.792 270.375 614.75 271.583 612.25 274C609.833 276.333 607.708 279.25 605.875 282.75ZM642 318V228H657.875V318H642ZM706.75 319.875C702.083 319.875 697.708 319.083 693.625 317.5C689.542 315.833 685.917 313.542 682.75 310.625C679.667 307.708 677.25 304.25 675.5 300.25C673.75 296.25 672.875 291.875 672.875 287.125C672.875 280.958 674.25 275.333 677 270.25C679.75 265.083 683.542 260.958 688.375 257.875C693.208 254.792 698.708 253.25 704.875 253.25C711.042 253.25 716.333 254.583 720.75 257.25C725.25 259.917 728.667 263.625 731 268.375C733.417 273.042 734.625 278.458 734.625 284.625V291.375H687.5V280.5H719.375C719.208 277.417 718.375 274.917 716.875 273C715.375 271 713.542 269.542 711.375 268.625C709.208 267.625 706.917 267.125 704.5 267.125C701.25 267.125 698.417 267.958 696 269.625C693.667 271.292 691.833 273.625 690.5 276.625C689.167 279.625 688.5 283.125 688.5 287.125C688.5 290.708 689.292 293.875 690.875 296.625C692.458 299.375 694.667 301.542 697.5 303.125C700.417 304.708 703.708 305.5 707.375 305.5C712.042 305.5 716.208 304.583 719.875 302.75C723.625 300.917 726.583 299.042 728.75 297.125V311.875C727.5 313.042 725.75 314.25 723.5 315.5C721.25 316.75 718.667 317.792 715.75 318.625C712.917 319.458 709.917 319.875 706.75 319.875ZM821.875 319.875C818.125 319.875 814.792 319.042 811.875 317.375C809.042 315.708 806.792 313.375 805.125 310.375C803.542 307.292 802.75 303.667 802.75 299.5V268.125H785.625V254.875H793.375C796.708 254.875 799.458 254.25 801.625 253C803.875 251.75 805.792 249.792 807.375 247.125C808.958 244.458 810.417 241.125 811.75 237.125H818.625V254.875H836.125V268.125H818.625V295.375C818.625 298.208 819.25 300.458 820.5 302.125C821.833 303.708 823.792 304.5 826.375 304.5C828.625 304.5 830.542 304.25 832.125 303.75C833.792 303.167 835.333 302.458 836.75 301.625V314.25C835.25 315.833 833.292 317.167 830.875 318.25C828.542 319.333 825.542 319.875 821.875 319.875ZM775.25 319.875C771.5 319.875 768.083 319.042 765 317.375C762 315.708 759.625 313.375 757.875 310.375C756.125 307.292 755.25 303.667 755.25 299.5V268.125H744.75V260C748.833 258.583 752.167 255.958 754.75 252.125C757.417 248.292 759.75 243.5 761.75 237.75H771.125V254.875H790.125V268.125H771.125V295.375C771.125 298.208 771.833 300.458 773.25 302.125C774.75 303.708 776.917 304.5 779.75 304.5C782.25 304.5 784.417 304.125 786.25 303.375C788.083 302.625 789.708 301.833 791.125 301V314.5C789.625 316.083 787.5 317.375 784.75 318.375C782.083 319.375 778.917 319.875 775.25 319.875ZM866 243.5C863 243.5 860.417 242.417 858.25 240.25C856.083 238.083 855 235.583 855 232.75C855 229.75 856.083 227.208 858.25 225.125C860.417 223.042 863 222 866 222C868 222 869.833 222.5 871.5 223.5C873.167 224.417 874.5 225.708 875.5 227.375C876.5 228.958 877 230.75 877 232.75C877 234.583 876.5 236.333 875.5 238C874.5 239.667 873.167 241 871.5 242C869.833 243 868 243.5 866 243.5ZM859.625 318V254.875H875.5V318H859.625ZM849.5 268.375V254.875H875.5V268.375H849.5Z" fill="#6393F2"/>
</g>
<g filter="url(#filter2_i_116_540)">
<path d="M768.031 363.844C767.125 363.844 766.344 363.516 765.688 362.859C765.062 362.203 764.75 361.438 764.75 360.562C764.75 359.656 765.062 358.891 765.688 358.266C766.344 357.609 767.125 357.281 768.031 357.281C768.938 357.281 769.703 357.609 770.328 358.266C770.984 358.891 771.312 359.656 771.312 360.562C771.312 361.438 770.984 362.203 770.328 362.859C769.703 363.516 768.938 363.844 768.031 363.844ZM788.328 363.703C786.328 363.703 784.5 363.203 782.844 362.203C781.188 361.172 779.859 359.75 778.859 357.938C777.891 356.125 777.406 354.031 777.406 351.656C777.406 349.062 777.891 346.828 778.859 344.953C779.859 343.078 781.219 341.641 782.938 340.641C784.656 339.609 786.578 339.094 788.703 339.094C790.047 339.094 791.406 339.422 792.781 340.078C794.188 340.703 795.391 341.578 796.391 342.703V329.25H800.234V363H796.391V359.016C795.578 360.266 794.469 361.359 793.062 362.297C791.688 363.234 790.109 363.703 788.328 363.703ZM788.938 359.953C790.375 359.953 791.656 359.578 792.781 358.828C793.906 358.078 794.797 357.047 795.453 355.734C796.109 354.391 796.422 352.891 796.391 351.234L796.344 346.734C795.375 345.516 794.328 344.578 793.203 343.922C792.109 343.266 790.844 342.938 789.406 342.938C787.719 342.938 786.281 343.359 785.094 344.203C783.906 345.016 782.984 346.078 782.328 347.391C781.703 348.703 781.391 350.125 781.391 351.656C781.391 353.156 781.703 354.547 782.328 355.828C782.953 357.078 783.828 358.078 784.953 358.828C786.109 359.578 787.438 359.953 788.938 359.953ZM818.797 363.703C817.016 363.703 815.375 363.391 813.875 362.766C812.406 362.109 811.109 361.219 809.984 360.094C808.891 358.938 808.047 357.625 807.453 356.156C806.859 354.656 806.562 353.078 806.562 351.422C806.562 349.203 807.047 347.156 808.016 345.281C808.984 343.406 810.312 341.906 812 340.781C813.719 339.656 815.672 339.094 817.859 339.094C820.266 339.094 822.266 339.594 823.859 340.594C825.453 341.594 826.641 342.953 827.422 344.672C828.234 346.391 828.641 348.328 828.641 350.484V352.781H810.172V349.5H824.844C824.688 347.969 824.25 346.719 823.531 345.75C822.844 344.781 822 344.062 821 343.594C820 343.094 818.953 342.844 817.859 342.844C816.359 342.844 815.062 343.25 813.969 344.062C812.875 344.844 812.031 345.891 811.438 347.203C810.844 348.484 810.547 349.891 810.547 351.422C810.547 352.922 810.875 354.328 811.531 355.641C812.219 356.922 813.188 357.969 814.438 358.781C815.688 359.562 817.141 359.953 818.797 359.953C820.484 359.953 822.047 359.531 823.484 358.688C824.953 357.812 826.188 356.859 827.188 355.828V360C826.75 360.531 826.094 361.094 825.219 361.688C824.375 362.25 823.391 362.719 822.266 363.094C821.172 363.5 820.016 363.703 818.797 363.703ZM842.234 363L831.688 339.562H836.281L843.359 356.812L851.047 339.562H855.641L844.625 363H842.234Z" fill="#6393F2"/>
</g>
<g filter="url(#filter3_i_116_540)">
<line x1="67" y1="345.5" x2="751" y2="345.5" stroke="#6393F2" stroke-width="5"/>
</g>
<defs>
<filter id="filter0_i_116_540" x="376" y="48" width="184.41" height="131.83" filterUnits="userSpaceOnUse" color-interpolation-filters="sRGB">
<feFlood flood-opacity="0" result="BackgroundImageFix"/>
<feBlend mode="normal" in="SourceGraphic" in2="BackgroundImageFix" result="shape"/>
<feColorMatrix in="SourceAlpha" type="matrix" values="0 0 0 0 0 0 0 0 0 0 0 0 0 0 0 0 0 0 127 0" result="hardAlpha"/>
<feOffset dy="4"/>
<feGaussianBlur stdDeviation="2"/>
<feComposite in2="hardAlpha" operator="arithmetic" k2="-1" k3="1"/>
<feColorMatrix type="matrix" values="0 0 0 0 0 0 0 0 0 0 0 0 0 0 0 0 0 0 0.25 0"/>
<feBlend mode="normal" in2="shape" result="effect1_innerShadow_116_540"/>
</filter>
<filter id="filter1_i_116_540" x="61.75" y="222" width="815.25" height="101.875" filterUnits="userSpaceOnUse" color-interpolation-filters="sRGB">
<feFlood flood-opacity="0" result="BackgroundImageFix"/>
<feBlend mode="normal" in="SourceGraphic" in2="BackgroundImageFix" result="shape"/>
<feColorMatrix in="SourceAlpha" type="matrix" values="0 0 0 0 0 0 0 0 0 0 0 0 0 0 0 0 0 0 127 0" result="hardAlpha"/>
<feOffset dy="4"/>
<feGaussianBlur stdDeviation="2"/>
<feComposite in2="hardAlpha" operator="arithmetic" k2="-1" k3="1"/>
<feColorMatrix type="matrix" values="0 0 0 0 0 0 0 0 0 0 0 0 0 0 0 0 0 0 0.25 0"/>
<feBlend mode="normal" in2="shape" result="effect1_innerShadow_116_540"/>
</filter>
<filter id="filter2_i_116_540" x="764.75" y="329.25" width="90.8906" height="38.5938" filterUnits="userSpaceOnUse" color-interpolation-filters="sRGB">
<feFlood flood-opacity="0" result="BackgroundImageFix"/>
<feBlend mode="normal" in="SourceGraphic" in2="BackgroundImageFix" result="shape"/>
<feColorMatrix in="SourceAlpha" type="matrix" values="0 0 0 0 0 0 0 0 0 0 0 0 0 0 0 0 0 0 127 0" result="hardAlpha"/>
<feOffset dy="4"/>
<feGaussianBlur stdDeviation="2"/>
<feComposite in2="hardAlpha" operator="arithmetic" k2="-1" k3="1"/>
<feColorMatrix type="matrix" values="0 0 0 0 0 0 0 0 0 0 0 0 0 0 0 0 0 0 0.25 0"/>
<feBlend mode="normal" in2="shape" result="effect1_innerShadow_116_540"/>
</filter>
<filter id="filter3_i_116_540" x="67" y="343" width="684" height="9" filterUnits="userSpaceOnUse" color-interpolation-filters="sRGB">
<feFlood flood-opacity="0" result="BackgroundImageFix"/>
<feBlend mode="normal" in="SourceGraphic" in2="BackgroundImageFix" result="shape"/>
<feColorMatrix in="SourceAlpha" type="matrix" values="0 0 0 0 0 0 0 0 0 0 0 0 0 0 0 0 0 0 127 0" result="hardAlpha"/>
<feOffset dy="4"/>
<feGaussianBlur stdDeviation="2"/>
<feComposite in2="hardAlpha" operator="arithmetic" k2="-1" k3="1"/>
<feColorMatrix type="matrix" values="0 0 0 0 0 0 0 0 0 0 0 0 0 0 0 0 0 0 0.25 0"/>
<feBlend mode="normal" in2="shape" result="effect1_innerShadow_116_540"/>
</filter>
</defs>
</svg>
