<svg width="455" height="456" viewBox="0 0 455 456" fill="none" xmlns="http://www.w3.org/2000/svg">
<path d="M415.461 190.7C371.104 114.738 250.797 141.793 226.222 104.842C213.64 85.9233 199.564 63.9932 179.146 52.5891C159.682 41.7173 137.113 37.838 117.438 39.2785C47.1789 44.4209 17.3874 107.283 30.889 176.315C48.8998 268.4 130.53 362.464 227.507 363.123C278.227 363.468 326.65 345.337 364.634 319.707C364.918 319.515 365.201 319.323 365.484 319.131C403.431 293.3 449.327 248.695 415.461 190.7Z" fill="#6393F2"/>
<path opacity="0.7" d="M415.461 190.7C371.104 114.738 250.797 141.793 226.222 104.842C213.64 85.9233 199.564 63.9932 179.146 52.5891C159.682 41.7173 137.113 37.838 117.438 39.2785C47.1789 44.4209 17.3874 107.283 30.889 176.315C48.8998 268.4 130.53 362.464 227.507 363.123C278.227 363.468 326.65 345.337 364.634 319.707C364.918 319.515 365.201 319.323 365.484 319.131C403.431 293.3 449.327 248.695 415.461 190.7Z" fill="white"/>
<path d="M71.1521 196.226H66.2208C55.198 196.226 46.2627 205.161 46.2627 216.184V325.695C46.2627 336.717 55.198 345.654 66.2208 345.654H133.888C144.911 345.654 153.847 336.718 153.847 325.695" stroke="#263238" stroke-width="1.00382" stroke-miterlimit="10" stroke-linecap="round" stroke-linejoin="round" stroke-dasharray="4.02 4.02"/>
<path d="M148.297 92.8957V71.2632C148.297 64.5128 153.77 59.04 160.52 59.04H248.519C255.269 59.04 260.742 64.5128 260.742 71.2632" stroke="#263238" stroke-width="1.00382" stroke-miterlimit="10" stroke-linecap="round" stroke-linejoin="round" stroke-dasharray="4.02 4.02"/>
<path d="M227.499 430.082C323.754 430.082 401.784 419.177 401.784 405.726C401.784 392.275 323.754 381.371 227.499 381.371C131.244 381.371 53.2144 392.275 53.2144 405.726C53.2144 419.177 131.244 430.082 227.499 430.082Z" fill="#6393F2"/>
<path opacity="0.5" d="M227.499 430.082C323.754 430.082 401.784 419.177 401.784 405.726C401.784 392.275 323.754 381.371 227.499 381.371C131.244 381.371 53.2144 392.275 53.2144 405.726C53.2144 419.177 131.244 430.082 227.499 430.082Z" fill="white"/>
<path d="M391.791 121.92V285.775C391.791 296.927 382.747 305.972 371.595 305.972H83.4059C72.253 305.972 63.2085 296.928 63.2085 285.775V121.92C63.2085 121.439 63.2285 120.966 63.2686 120.495C63.9911 110.006 72.7344 101.714 83.405 101.714H371.594C382.265 101.714 391.008 110.006 391.73 120.495C391.771 120.966 391.791 121.439 391.791 121.92Z" fill="white" stroke="#263238" stroke-width="1.00382" stroke-miterlimit="10" stroke-linecap="round" stroke-linejoin="round"/>
<path d="M364.064 298.354H91.9641C81.51 298.354 73.0361 289.88 73.0361 279.426V128.064H382.992V279.425C382.992 289.879 374.518 298.354 364.064 298.354Z" fill="#263238"/>
<path opacity="0.2" d="M382.998 128.063V279.43C382.998 289.88 374.612 298.352 364.28 298.352H91.7539C81.4227 298.352 73.0361 289.88 73.0361 279.43V128.063H382.998Z" fill="white"/>
<path d="M391.731 120.495H63.2686C63.9911 110.006 72.7344 101.714 83.405 101.714H371.594C382.265 101.714 391.008 110.005 391.731 120.495Z" fill="#6393F2" stroke="#263238" stroke-width="1.00382" stroke-miterlimit="10"/>
<path d="M103.631 111.104C103.631 113.079 102.03 114.681 100.054 114.681C98.0787 114.681 96.4771 113.079 96.4771 111.104C96.4771 109.128 98.0787 107.527 100.054 107.527C102.03 107.527 103.631 109.128 103.631 111.104Z" fill="#263238"/>
<path d="M118.758 111.104C118.758 113.079 117.157 114.681 115.181 114.681C113.206 114.681 111.604 113.079 111.604 111.104C111.604 109.128 113.206 107.527 115.181 107.527C117.156 107.527 118.758 109.128 118.758 111.104Z" fill="#263238"/>
<path d="M130.307 114.681C132.283 114.681 133.884 113.079 133.884 111.104C133.884 109.128 132.283 107.527 130.307 107.527C128.332 107.527 126.73 109.128 126.73 111.104C126.73 113.079 128.332 114.681 130.307 114.681Z" fill="#263238"/>
<path d="M382.993 128.07V279.426C382.993 289.876 374.52 298.359 364.06 298.359H91.9636C82.769 298.359 75.1095 291.794 73.4033 283.101L73.3933 283.091V283.051C73.1621 281.876 73.042 280.662 73.042 279.427V128.07H382.993Z" stroke="#263238" stroke-width="1.00382" stroke-miterlimit="10"/>
<path d="M382.699 151.481C381.374 150.738 379.959 150.156 378.493 149.744L376.796 142.146H369.569L367.883 149.744C366.407 150.146 364.992 150.738 363.667 151.481L357.142 147.305L352.033 152.414L356.138 158.939C355.386 160.274 354.804 161.689 354.402 163.155L346.804 164.841V172.068L354.402 173.765C354.804 175.251 355.386 176.676 356.138 178.011L351.963 184.575L357.072 189.685L363.637 185.509C364.962 186.262 366.377 186.844 367.853 187.255L369.539 194.845H376.766L378.463 187.255C379.929 186.844 381.344 186.252 382.669 185.509L383 185.72V151.289L382.699 151.481ZM373.203 177.831C368.043 177.831 363.867 173.655 363.867 168.496C363.867 163.346 368.043 159.16 373.203 159.16C378.363 159.16 382.539 163.346 382.539 168.496C382.539 173.655 378.363 177.831 373.203 177.831Z" fill="#263238"/>
<path d="M252.48 158.801V143.563L236.458 140.009C235.585 136.917 234.361 133.926 232.795 131.115L234.732 128.063H159.114L160.981 131.035C159.405 133.836 158.18 136.817 157.328 139.918L141.306 143.482V158.72L157.328 162.293C158.181 165.415 159.405 168.427 160.981 171.248L152.178 185.09L162.959 195.861L176.792 187.058C179.603 188.634 182.584 189.869 185.685 190.742L189.239 206.742H204.477L208.06 190.742C211.151 189.868 214.123 188.623 216.924 187.058L230.766 195.861L241.537 185.09L232.794 171.248C234.35 168.437 235.585 165.465 236.458 162.374L252.48 158.801ZM196.968 170.867C186.096 170.867 177.283 162.054 177.283 151.182C177.283 140.31 186.096 131.497 196.968 131.497C207.84 131.497 216.653 140.31 216.653 151.182C216.653 162.054 207.84 170.867 196.968 170.867Z" fill="#263238"/>
<path d="M151.41 263.436L152.053 251.35L139.525 247.817C138.942 245.337 138.079 242.918 136.955 240.63L144.523 229.999L136.413 220.994L125.069 227.409C122.901 226.054 120.592 224.939 118.163 224.107L115.995 211.257L103.909 210.615L100.416 223.183C97.9259 223.735 95.5172 224.598 93.2285 225.733L82.6079 218.164L73.5935 226.275L80.0181 237.628C78.633 239.787 77.5283 242.096 76.7057 244.524L73.042 245.127V261.499L75.7019 262.252C76.2643 264.752 77.127 267.171 78.2718 269.459L73.042 276.777L73.3933 283.051V283.091L73.4033 283.101L78.7941 289.084L90.1573 282.67C92.3258 284.065 94.6545 285.189 97.0833 286.012L99.1508 298.349V298.359L99.2509 298.871L111.337 299.514L111.658 298.359V298.349L114.83 286.946C117.34 286.383 119.749 285.531 122.057 284.396L132.658 291.954L141.672 283.854L135.268 272.49C136.633 270.332 137.738 268.023 138.54 265.604L151.41 263.436ZM119.307 244.553C113.525 238.129 103.628 237.607 97.2034 243.389C90.7788 249.171 90.2574 259.068 96.0386 265.493C101.821 271.917 111.718 272.429 118.143 266.646C124.567 260.866 125.089 250.978 119.307 244.553Z" fill="#263238"/>
<path d="M248.067 245.375C248.536 243.504 248.779 241.581 248.8 239.651L257.49 235.083L255.088 226.267L245.28 226.726C244.288 225.072 243.101 223.539 241.757 222.172L244.663 212.789L236.744 208.252L230.118 215.482C228.253 215.025 226.34 214.785 224.412 214.755L219.825 206.059L211.022 208.454L211.487 218.274C209.833 219.266 208.3 220.453 206.924 221.794L197.538 218.897L192.995 226.804L200.264 233.412C199.795 235.283 199.556 237.197 199.547 239.121L190.842 243.704L193.244 252.52L203.064 252.055C204.044 253.715 205.221 255.244 206.575 256.615L203.655 265.949L211.576 270.487L218.168 263.319C220.039 263.788 221.952 264.028 223.886 264.039L228.461 272.742L237.264 270.346L236.878 261.958L236.813 260.52C238.485 259.535 240.028 258.352 241.42 256.995L250.799 259.911L254.675 253.137L255.337 251.99L248.067 245.375ZM227.252 250.731C220.962 252.442 214.482 248.729 212.776 242.452C211.064 236.162 214.777 229.682 221.054 227.976C227.344 226.264 233.824 229.977 235.531 236.254C237.242 242.544 233.529 249.025 227.252 250.731Z" fill="#263238"/>
<path d="M348.817 260.88L350.825 248.784L338.578 243.855C338.297 241.275 337.704 238.746 336.822 236.307L345.635 226.49L338.498 216.512L326.341 221.671C324.324 220.055 322.125 218.69 319.776 217.595L319.064 204.405L306.958 202.407L302 214.604C299.43 214.905 296.91 215.498 294.481 216.371L284.633 207.558L274.665 214.695L279.835 226.842C278.41 228.628 277.175 230.536 276.151 232.564C276.011 232.845 275.87 233.126 275.74 233.408L262.559 234.14L260.552 246.226L262.539 247.029L272.799 251.165C273.08 253.725 273.662 256.255 274.555 258.684L265.741 268.532L272.879 278.5L285.035 273.32C287.043 274.956 289.251 276.331 291.59 277.426L292.273 290.556L304.368 292.554L309.317 280.448C311.897 280.167 314.426 279.575 316.855 278.682L326.682 287.505L336.661 280.358L331.491 268.201C333.137 266.184 334.532 263.965 335.637 261.607L348.817 260.88ZM314.878 260.338C307.761 265.428 297.863 263.792 292.774 256.674C287.674 249.567 289.32 239.669 296.428 234.581C303.545 229.481 313.443 231.127 318.531 238.234C323.631 245.35 321.985 255.248 314.878 260.338Z" fill="#263238"/>
<path d="M184.799 326.907H89.6337C83.0453 326.907 77.7036 321.565 77.7036 314.977V183.214C77.7036 176.626 83.0444 171.284 89.6337 171.284H184.799C191.387 171.284 196.729 176.626 196.729 183.214V314.977C196.729 321.566 191.387 326.907 184.799 326.907Z" fill="#6393F2" stroke="#263238" stroke-width="1.00382" stroke-miterlimit="10"/>
<path opacity="0.2" d="M184.799 326.907H89.6337C83.0453 326.907 77.7036 321.565 77.7036 314.977V183.214C77.7036 176.626 83.0444 171.284 89.6337 171.284H184.799C191.387 171.284 196.729 176.626 196.729 183.214V314.977C196.729 321.566 191.387 326.907 184.799 326.907Z" fill="black"/>
<path d="M207.81 194.969V326.73C207.81 333.325 202.47 338.666 195.874 338.666H100.711C94.1259 338.666 88.7852 333.326 88.7852 326.73V194.969C88.7852 188.384 94.125 183.043 100.711 183.043H195.874C202.469 183.043 207.81 188.383 207.81 194.969Z" fill="white" stroke="#263238" stroke-width="1.00382" stroke-miterlimit="10" stroke-linecap="round" stroke-linejoin="round"/>
<path d="M207.81 194.969V202.026H88.7852V194.969C88.7852 188.384 94.125 183.043 100.711 183.043H195.874C202.469 183.043 207.81 188.383 207.81 194.969Z" fill="#6393F2" stroke="#263238" stroke-width="1.00382" stroke-miterlimit="10"/>
<path d="M129.261 210.199H99.979V215.111H129.261V210.199Z" fill="#6393F2"/>
<path d="M129.261 254.232H99.979V259.144H129.261V254.232Z" fill="#6393F2"/>
<path d="M129.261 294.163H99.979V299.074H129.261V294.163Z" fill="#6393F2"/>
<path d="M183.146 222.359H99.979V225.961H183.146V222.359Z" fill="#263238"/>
<path d="M168.149 229.254H99.979V232.765H168.149V229.254Z" fill="#263238"/>
<path d="M177.076 236.032H99.979V239.543H177.076V236.032Z" fill="#263238"/>
<path d="M177.076 242.804H99.979V246.315H177.076V242.804Z" fill="#263238"/>
<path d="M183.146 262.29H99.979V265.892H183.146V262.29Z" fill="#263238"/>
<path d="M168.149 269.185H99.979V272.695H168.149V269.185Z" fill="#263238"/>
<path d="M177.076 275.962H99.979V279.473H177.076V275.962Z" fill="#263238"/>
<path d="M183.146 306.139H99.979V309.741H183.146V306.139Z" fill="#263238"/>
<path d="M168.149 313.034H99.979V316.544H168.149V313.034Z" fill="#263238"/>
<path d="M177.076 319.812H99.979V323.323H177.076V319.812Z" fill="#263238"/>
<path d="M341.946 91.681V144.934C341.946 152.794 335.582 159.158 327.722 159.158H205.065C197.215 159.158 190.841 152.794 190.841 144.934V91.681C190.841 83.8213 197.215 77.4468 205.065 77.4468H327.722C335.582 77.4468 341.946 83.8213 341.946 91.681Z" fill="white" stroke="#222221" stroke-width="1.00382" stroke-miterlimit="10"/>
<path d="M341.946 91.681V92.8958H190.841V91.681C190.841 83.8213 197.215 77.4468 205.065 77.4468H327.722C335.582 77.4468 341.946 83.8213 341.946 91.681Z" fill="#6393F2" stroke="#263238" stroke-width="1.00382" stroke-miterlimit="10"/>
<path d="M213.039 87.7165C212.188 88.5673 210.809 88.5673 209.958 87.7165C209.107 86.8656 209.107 85.4861 209.958 84.6352C210.809 83.7844 212.188 83.7844 213.039 84.6352C213.89 85.4861 213.89 86.8656 213.039 87.7165Z" fill="#263238"/>
<path d="M223.158 87.7165C222.308 88.5673 220.928 88.5673 220.077 87.7165C219.226 86.8656 219.226 85.4861 220.077 84.6352C220.928 83.7844 222.308 83.7844 223.158 84.6352C224.009 85.4861 224.009 86.8656 223.158 87.7165Z" fill="#263238"/>
<path d="M233.278 87.7165C232.427 88.5673 231.048 88.5673 230.197 87.7165C229.346 86.8656 229.346 85.4861 230.197 84.6352C231.048 83.7844 232.427 83.7844 233.278 84.6352C234.129 85.4861 234.129 86.8656 233.278 87.7165Z" fill="#263238"/>
<path d="M249.869 102.688H200.476V145.384H249.869V102.688Z" stroke="#263238" stroke-width="1.00382" stroke-miterlimit="10" stroke-linecap="round" stroke-linejoin="round" stroke-dasharray="4.02 4.02"/>
<path d="M314.335 102.688H257.49V105.687H314.335V102.688Z" fill="#263238"/>
<path d="M301.094 108.906H257.49V111.905H301.094V108.906Z" fill="#263238"/>
<path d="M322.421 115.089H257.49V118.123H322.421V115.089Z" fill="#263238"/>
<path d="M312.78 121.13H257.49V124.164H312.78V121.13Z" fill="#263238"/>
<path d="M270.145 401.236C270.145 401.236 243.754 408.805 240.07 410.11C236.718 411.295 227.633 414.476 220.817 413.492C220.144 413.392 219.492 413.251 218.869 413.071C211.963 411.013 208.861 409.096 207.957 404.749C207.044 400.393 210.487 397.21 213.8 395.162C217.112 393.115 235.081 390.976 235.081 390.976L239.417 392.251H239.427L270.145 401.236Z" fill="#6393F2"/>
<path d="M220.818 413.493C220.145 413.393 219.493 413.252 218.87 413.072C211.964 411.014 208.862 409.097 207.958 404.75C207.045 400.394 210.488 397.211 213.801 395.163C217.113 393.116 235.082 390.977 235.082 390.977L239.418 392.252C235.493 394.059 220.858 395.063 217.665 396.899C214.473 398.737 212.927 402.199 214.814 406.877C215.818 409.368 218.508 411.777 220.818 413.493Z" fill="white"/>
<path d="M266.175 402.313C266.175 402.313 246.355 407.448 238.496 410.735C230.637 414.022 215.642 415.46 210.302 408.681C204.961 401.902 209.686 396.071 215.026 394.775C220.367 393.479 231.167 391.426 237.065 392.247" stroke="#263238" stroke-width="1.00382" stroke-miterlimit="10" stroke-linecap="round" stroke-linejoin="round"/>
<path d="M221.215 413.133C221.215 413.133 211.131 407.604 214.48 399.853C216.951 394.134 230.404 395.374 237.065 392.247" stroke="#263238" stroke-width="1.00382" stroke-miterlimit="10" stroke-linecap="round" stroke-linejoin="round"/>
<path d="M350.521 414.718C350.25 417.418 349.296 420.008 346.566 421.614C344.749 422.688 342.159 423.33 338.456 423.29C329.2 423.17 311.804 416.554 311.804 416.554L295.513 407.55L303.985 394.139L306.303 390.465L312.296 391.81C312.296 391.81 317.254 394.621 322.244 396.858C327.233 399.097 339.339 399.568 343.605 403.022C347.871 406.466 350.983 410.221 350.521 414.718Z" fill="#6393F2"/>
<path d="M350.522 414.718C350.251 417.418 349.297 420.008 346.567 421.614C347.079 419.516 347.501 416.614 346.106 413.483C344.298 409.397 338.366 405.794 330.576 405.192C322.797 404.59 316.824 400.946 313.702 399.32C311.264 398.055 306.124 395.295 303.985 394.14L306.304 390.466L312.296 391.811C312.296 391.811 317.255 394.622 322.245 396.859C327.233 399.098 339.34 399.569 343.606 403.023C347.872 406.466 350.983 410.221 350.522 414.718Z" fill="white"/>
<path d="M299.122 410.075C310.72 416.719 323.985 421.503 337.255 423.102C340.218 423.459 343.667 423.508 345.652 421.281C346.759 420.04 347.163 418.283 347.021 416.626C346.662 412.444 343.145 409.127 339.289 407.47C335.432 405.812 331.173 405.416 327.078 404.498C322.999 403.583 319.04 402.135 315.334 400.202C312.389 398.666 309.539 396.799 306.289 396.111C303.04 395.423 299.17 396.258 297.437 399.091" stroke="#263238" stroke-width="1.00382" stroke-miterlimit="10" stroke-linecap="round" stroke-linejoin="round"/>
<path d="M344.565 422.415C347.564 420.877 350.025 418.05 350.525 414.717C351.115 410.775 348.87 406.812 345.706 404.386C342.542 401.961 338.59 400.823 334.687 400.012C330.784 399.2 326.793 398.655 323.08 397.205C317.372 394.974 311.741 390.569 305.817 392.141" stroke="#263238" stroke-width="1.00382" stroke-miterlimit="10" stroke-linecap="round" stroke-linejoin="round"/>
<path d="M317.506 269.103L289.941 258.613L289.6 258.482C289.6 258.482 289.7 257.749 289.781 256.686C289.952 254.487 290.042 250.904 289.009 249.689C287.472 247.891 283.116 249.397 278.87 247.45C274.624 245.503 266.764 248.986 266.764 248.986C266.764 248.986 261.092 247.942 258.594 252.038C257.319 255.341 257.76 260.259 257.76 260.259C257.76 260.259 257.58 260.329 257.238 260.45C253.955 261.675 236.087 268.401 232.303 271.101C228.127 274.062 223.509 304.428 222.023 313.342C220.537 322.266 217.897 330.296 219.242 333.369C220.577 336.431 239.781 351.216 250.823 355.031C261.865 358.856 301.044 357.731 301.044 357.731C301.044 357.731 301.687 357.56 302.821 357.199C309.446 355.07 332.955 346.307 345.423 325.638C345.423 325.638 333.346 286.028 317.506 269.103ZM243.032 320.177C241.004 321.613 242.088 327.184 242.088 327.184L238.635 324.143L247.298 302.842L250.991 319.194C250.991 319.194 245.06 318.752 243.032 320.177ZM312.336 333.709C311.383 334.2 315.077 323.962 313.32 321.643C311.564 319.315 306.303 319.546 306.303 319.546L306.754 316.745C306.814 316.434 309.877 300.734 309.877 300.734L310.91 299.499C310.91 299.499 321.631 317.88 323.549 324.354C323.549 324.354 311.864 333.709 312.336 333.709Z" fill="#6393F2"/>
<path d="M265.46 202.664L251.233 217.769C251.233 217.769 249.272 219.504 250.051 223.886C250.831 228.267 252.647 232.032 254.019 232.323C255.39 232.615 257.313 232.618 257.313 232.618C257.313 232.618 260.362 239.225 262.521 241.822C262.521 241.822 263.274 252.02 262.873 254.851C262.873 254.851 267.984 259.315 272.799 259.883C277.613 260.451 285.052 253.075 285.052 253.075L286.895 244.045C286.895 244.045 291.26 237.42 291.557 235.656C291.855 233.893 293.851 234.345 294.831 233.475C295.811 232.605 298.08 228.714 298.455 225.038C298.83 221.361 298.857 217.138 294.585 218.378C290.885 217.384 293.201 209.56 293.201 209.56L286.698 203.823L265.46 202.664Z" fill="white"/>
<path opacity="0.5" d="M289.94 258.613C289.719 259.195 289.478 259.747 289.207 260.259C286.859 264.686 276.629 273.118 276.629 273.118L273.537 263.613L271.841 273.118C268.427 271.632 258.018 262.609 258.018 262.609C258.018 262.609 257.667 261.765 257.235 260.45C257.577 260.33 257.758 260.259 257.758 260.259C257.758 260.259 257.316 255.341 258.591 252.038C261.091 247.942 266.762 248.986 266.762 248.986C266.762 248.986 274.622 245.503 278.868 247.45C283.114 249.397 287.471 247.891 289.006 249.689C290.542 251.485 289.599 258.482 289.599 258.482L289.94 258.613Z" fill="white"/>
<path opacity="0.2" d="M317.506 269.102L289.941 258.613L289.6 258.482C289.6 258.482 289.7 257.749 289.781 256.686L289.209 260.259L285.133 265.8C285.133 265.8 292.025 268.287 297.852 271.407C301.903 273.575 304.229 277.986 303.696 282.55L298.614 326L296.537 350.674L302.82 357.199C309.446 355.07 332.955 346.307 345.423 325.638C345.423 325.638 333.346 286.028 317.506 269.102ZM312.336 333.709C311.383 334.2 315.077 323.962 313.32 321.643C311.564 319.314 306.303 319.546 306.303 319.546L306.754 316.745C306.814 316.433 309.877 300.734 309.877 300.734L310.91 299.499C310.91 299.499 321.631 317.879 323.548 324.354C323.548 324.354 311.864 333.709 312.336 333.709Z" fill="black"/>
<path opacity="0.2" d="M252.859 321.643L248.573 307.319C248.573 307.319 240.888 281.107 235.618 274.643L237.003 293.076C237.003 293.076 232.482 315.098 228.296 321.643C224.11 328.178 223.206 329.814 228.296 329.814C233.395 329.814 245.762 339.682 245.762 339.682L244.809 331.45L252.859 321.643ZM242.088 327.184L238.634 324.143L247.297 302.842L250.991 319.194C250.991 319.194 245.059 318.753 243.03 320.178C241.004 321.613 242.088 327.184 242.088 327.184Z" fill="black"/>
<path d="M262.521 241.822C262.521 241.822 263.313 249.546 262.521 253.075" stroke="#263238" stroke-width="1.00382" stroke-miterlimit="10" stroke-linecap="round" stroke-linejoin="round"/>
<path d="M285.838 252.04C285.838 252.04 285.793 248.277 286.698 244.661" stroke="#263238" stroke-width="1.00382" stroke-miterlimit="10" stroke-linecap="round" stroke-linejoin="round"/>
<path d="M287.907 208.423C287.907 208.423 292.58 214.294 292.34 218.728C292.101 223.161 291.742 228.434 291.861 233.586C291.981 238.739 283.592 249.523 279.279 250.481C274.966 251.439 271.251 251.68 268.495 248.923C265.739 246.167 262.983 242.333 259.388 237.42C255.794 232.507 256.633 221.723 256.633 221.723" stroke="#263238" stroke-width="1.00382" stroke-miterlimit="10" stroke-linecap="round" stroke-linejoin="round"/>
<path d="M276.659 225.833C276.373 227.443 276.251 229.082 276.294 230.717C276.33 232.085 276.533 233.565 277.492 234.542C278.009 235.069 278.759 235.491 278.857 236.221C278.945 236.87 278.449 237.459 277.897 237.812C277.346 238.165 276.706 238.383 276.213 238.813" stroke="#263238" stroke-width="1.00382" stroke-miterlimit="10" stroke-linecap="round" stroke-linejoin="round"/>
<path d="M269.238 239.383C269.238 239.383 269.778 242.865 274.448 243.594" stroke="#263238" stroke-width="1.00382" stroke-miterlimit="10" stroke-linecap="round" stroke-linejoin="round"/>
<path d="M269.724 228.489C269.724 229.495 269.289 230.311 268.752 230.311C268.215 230.311 267.78 229.495 267.78 228.489C267.78 227.482 268.215 226.666 268.752 226.666C269.289 226.667 269.724 227.482 269.724 228.489Z" fill="#263238"/>
<path d="M283.655 228.926C283.655 229.932 283.22 230.749 282.683 230.749C282.146 230.749 281.711 229.932 281.711 228.926C281.711 227.92 282.146 227.103 282.683 227.103C283.219 227.104 283.655 227.92 283.655 228.926Z" fill="#263238"/>
<path d="M280.845 224.515C280.845 224.515 285.375 219.985 289.208 225.037" stroke="#263238" stroke-width="2.00764" stroke-miterlimit="10" stroke-linecap="round" stroke-linejoin="round"/>
<path d="M271.263 224.602C271.263 224.602 268.388 221.379 263.858 224.602" stroke="#263238" stroke-width="2.00764" stroke-miterlimit="10" stroke-linecap="round" stroke-linejoin="round"/>
<path d="M262.872 246.066C262.872 246.066 265.647 253.714 271.843 255.883C278.04 258.052 286.267 246.796 286.267 246.796L285.837 245.332C285.837 245.332 280.446 252.336 274.448 251.142C268.45 249.947 262.52 241.822 262.52 241.822L262.872 246.066Z" fill="#263238"/>
<path d="M257.313 232.323C257.313 232.323 253.619 233.627 252.637 230.749C251.655 227.871 248.288 220.295 251.234 217.77C254.181 215.244 256.548 221.104 256.548 221.104" stroke="#263238" stroke-width="1.00382" stroke-miterlimit="10" stroke-linecap="round" stroke-linejoin="round"/>
<path d="M291.854 233.892C291.854 233.892 295.288 234.583 296.27 231.704C297.252 228.826 300.619 221.25 297.673 218.724C294.726 216.199 292.359 222.058 292.359 222.058" stroke="#263238" stroke-width="1.00382" stroke-miterlimit="10" stroke-linecap="round" stroke-linejoin="round"/>
<path d="M256.548 228.488C257.571 228.442 259.25 227.445 259.789 226.573C260.328 225.702 260.556 224.677 260.731 223.668C261.066 221.735 261.238 219.774 261.244 217.813C261.247 217.047 261.226 216.264 261.45 215.532C261.683 214.768 262.167 214.108 262.685 213.501C263.974 211.99 265.526 210.713 266.752 209.151C267.977 207.588 268.878 205.61 268.547 203.652C268.547 203.652 276.924 211.308 288.998 208.941C295.498 207.666 301.738 201.961 300.978 194.791C300.708 192.239 298.833 190.405 296.398 189.799C293.185 189 290.298 190.712 287.387 191.811C282.079 193.813 276.885 190.375 271.523 189.799C266.936 189.306 261.308 189.874 258.919 194.434C258.919 194.434 250.682 195.403 247.073 202.168C243.465 208.933 250.323 218.3 250.323 218.3C250.323 218.3 253.084 214.959 256.631 221.723L256.548 228.488Z" fill="#263238"/>
<path d="M288.426 206.693C288.426 206.693 286.296 217.794 291.854 223.169C291.854 223.169 293.071 219.832 294.304 219.017C294.304 219.017 297.398 213.152 293.33 206.692C289.264 200.233 288.426 206.693 288.426 206.693Z" fill="#263238"/>
<path opacity="0.2" d="M298.609 194.06C297.786 197.12 295.199 199.487 292.265 200.681C284.548 203.825 277.054 200.338 269.328 199.656C263.013 199.098 256.053 204.786 255.611 211.269" stroke="white" stroke-width="1.00382" stroke-miterlimit="10" stroke-linecap="round" stroke-linejoin="round"/>
<path opacity="0.2" d="M250.82 209.559C250.936 204.456 254.308 199.572 259.039 197.655" stroke="white" stroke-width="1.00382" stroke-miterlimit="10" stroke-linecap="round" stroke-linejoin="round"/>
<path d="M260.742 252.04C260.742 252.04 265.826 257.642 272.759 260.261C272.759 260.261 281.996 257.582 286.698 251.141" stroke="#263238" stroke-width="1.00382" stroke-miterlimit="10" stroke-linecap="round" stroke-linejoin="round"/>
<path d="M270.188 235.914C274.292 234.032 276.093 229.179 274.211 225.076C272.329 220.972 267.476 219.171 263.373 221.053C259.269 222.935 257.468 227.788 259.35 231.892C261.232 235.995 266.085 237.796 270.188 235.914Z" stroke="#263238" stroke-width="1.00382" stroke-miterlimit="10" stroke-linecap="round" stroke-linejoin="round"/>
<path d="M286.007 236.597C290.488 236.047 293.674 231.969 293.124 227.488C292.573 223.007 288.495 219.821 284.014 220.371C279.533 220.921 276.347 225 276.897 229.481C277.448 233.961 281.526 237.148 286.007 236.597Z" stroke="#263238" stroke-width="1.00382" stroke-miterlimit="10" stroke-linecap="round" stroke-linejoin="round"/>
<path d="M262.521 248.99C262.521 248.99 260.035 249.494 258.589 252.039C257.142 254.585 258.014 262.603 258.014 262.603C258.014 262.603 265.483 269.995 271.843 273.113L273.719 262.562L276.631 273.113C276.631 273.113 286.48 266.148 289.207 260.26C289.207 260.26 290.096 253.395 289.207 251.14C288.318 248.885 286.268 248.99 286.268 248.99" stroke="#263238" stroke-width="1.00382" stroke-miterlimit="10" stroke-linecap="round" stroke-linejoin="round"/>
<path d="M250.819 319.548C250.819 319.548 247.904 299.988 244.018 292.007" stroke="#263238" stroke-width="1.00382" stroke-miterlimit="10" stroke-linecap="round" stroke-linejoin="round"/>
<path d="M235.618 274.643C235.618 274.643 239.308 279.816 241.659 284.754" stroke="#263238" stroke-width="1.00382" stroke-miterlimit="10" stroke-linecap="round" stroke-linejoin="round"/>
<path d="M312.337 289.246C313.365 285.349 314.457 281.93 315.548 279.698" stroke="#263238" stroke-width="1.00382" stroke-miterlimit="10" stroke-linecap="round" stroke-linejoin="round"/>
<path d="M306.302 319.548C306.302 319.548 308.409 306.139 310.915 295.087" stroke="#263238" stroke-width="1.00382" stroke-miterlimit="10" stroke-linecap="round" stroke-linejoin="round"/>
<path d="M309.874 300.73C311.88 298.052 314.788 296.063 318.011 295.165" stroke="#263238" stroke-width="1.00382" stroke-miterlimit="10" stroke-linecap="round" stroke-linejoin="round"/>
<path d="M289.603 258.482C289.603 258.482 306.565 265.257 317.511 269.104C317.511 269.104 330.979 281.77 345.419 325.639C345.419 325.639 332.183 347.898 307.016 355.034" stroke="#263238" stroke-width="1.00382" stroke-miterlimit="10" stroke-linecap="round" stroke-linejoin="round"/>
<path d="M311.387 334.506L323.547 324.353C323.547 324.353 329.98 319.464 336.67 322.809" stroke="#263238" stroke-width="1.00382" stroke-miterlimit="10" stroke-linecap="round" stroke-linejoin="round"/>
<path d="M310.915 299.502C310.915 299.502 320.974 314.318 323.547 324.353" stroke="#263238" stroke-width="1.00382" stroke-miterlimit="10" stroke-linecap="round" stroke-linejoin="round"/>
<path d="M242.198 327.746L238.638 324.353C238.638 324.353 233.356 323.429 227.375 327.44" stroke="#263238" stroke-width="1.00382" stroke-miterlimit="10" stroke-linecap="round" stroke-linejoin="round"/>
<path d="M238.639 324.353C238.639 324.353 243.059 309.835 247.418 302.339" stroke="#263238" stroke-width="1.00382" stroke-miterlimit="10" stroke-linecap="round" stroke-linejoin="round"/>
<path d="M257.755 260.261C257.755 260.261 233.356 269.416 230.964 272.082C228.572 274.748 219.48 325.951 219.241 331.811C219.027 337.049 238.031 348.818 247.419 353.779" stroke="#263238" stroke-width="1.00382" stroke-miterlimit="10" stroke-linecap="round" stroke-linejoin="round"/>
<path d="M346.083 252.04H318.282C314.999 252.04 312.337 249.379 312.337 246.096V229.786C312.337 226.504 314.998 223.842 318.282 223.842H346.083C349.365 223.842 352.027 226.503 352.027 229.786V246.096C352.026 249.378 349.365 252.04 346.083 252.04Z" fill="white" stroke="#263238" stroke-width="1.00382" stroke-miterlimit="10" stroke-linecap="round" stroke-linejoin="round"/>
<path d="M325.143 232.323L317.511 237.114L324.593 243.395" stroke="#263238" stroke-width="1.00382" stroke-miterlimit="10" stroke-linecap="round" stroke-linejoin="round"/>
<path d="M339.05 243.852L345.908 238.007L337.991 232.816" stroke="#263238" stroke-width="1.00382" stroke-miterlimit="10" stroke-linecap="round" stroke-linejoin="round"/>
<path d="M328.853 247.448L334.486 229.782" stroke="#263238" stroke-width="1.00382" stroke-miterlimit="10" stroke-linecap="round" stroke-linejoin="round"/>
<path d="M275.999 277.559C275.999 278.445 275.281 279.163 274.395 279.163C273.509 279.163 272.791 278.445 272.791 277.559C272.791 276.673 273.509 275.955 274.395 275.955C275.281 275.955 275.999 276.673 275.999 277.559Z" fill="#263238"/>
<path d="M304.231 363.299H248.705C247.986 363.299 247.403 362.716 247.403 361.998C247.403 361.279 247.987 360.697 248.705 360.697H304.231C304.95 360.697 305.532 361.28 305.532 361.998C305.532 362.716 304.95 363.299 304.231 363.299Z" fill="#263238"/>
<path d="M306.175 358.984L313.616 324.041C314.108 321.728 312.344 319.548 309.978 319.548H245.104C242.761 319.548 241.001 321.689 241.456 323.987L248.127 357.767C248.464 359.478 249.946 360.725 251.689 360.764L302.452 361.927C304.239 361.968 305.803 360.732 306.175 358.984Z" fill="white" stroke="#263238" stroke-width="1.00382" stroke-miterlimit="10" stroke-linecap="round" stroke-linejoin="round"/>
<path d="M282.5 339.685C282.5 342.545 280.181 344.865 277.32 344.865C274.459 344.865 272.14 342.546 272.14 339.685C272.14 336.825 274.459 334.505 277.32 334.505C280.181 334.505 282.5 336.825 282.5 339.685Z" fill="#263238"/>
<path d="M292.678 322.864H300.386" stroke="#263238" stroke-width="1.00382" stroke-miterlimit="10" stroke-linecap="round" stroke-linejoin="round"/>
<path d="M255.87 322.864H285.128" stroke="#263238" stroke-width="1.00382" stroke-miterlimit="10" stroke-linecap="round" stroke-linejoin="round"/>
<path d="M306.302 396.055L300.386 411.578C300.386 411.578 285.306 407.776 265.982 403.816C245.776 399.676 224.673 394.315 213.725 375.11C212.39 372.769 211.503 370.002 212.127 367.381C213.707 360.747 222.337 358.947 228.025 358.282C231.595 357.866 235.199 357.727 238.791 357.677C240.622 357.652 246.664 356.692 248.126 357.767C248.126 357.767 251.918 360.558 255.148 361.928C258.378 363.299 305.531 360.696 305.531 360.696C305.531 360.696 306.934 357.736 307.014 355.035C314.426 351.267 331.59 348.076 338.843 349.486C350.248 351.704 356.9 358.356 355.633 365.326C354.367 372.295 329.199 390.986 306.302 396.055Z" fill="#263238"/>
<path d="M306.302 396.055C306.302 396.055 291.959 392.254 280.237 384.333C268.515 376.413 259.358 367.226 243.029 369.127" stroke="white" stroke-width="1.00382" stroke-miterlimit="10" stroke-linecap="round" stroke-linejoin="round"/>
<path d="M277.54 382.465C284.944 380.335 290.377 375.546 296.319 370.947C302.611 366.075 309.266 361.357 316.423 357.737" stroke="white" stroke-width="1.00382" stroke-miterlimit="10" stroke-linecap="round" stroke-linejoin="round"/>
<path d="M274.938 229.782H277.11" stroke="#263238" stroke-width="1.00382" stroke-miterlimit="10" stroke-linecap="round" stroke-linejoin="round"/>
</svg>
